<?xml version="1.0" encoding="UTF-8" standalone="no"?>
<!-- Created with Inkscape (http://www.inkscape.org/) -->

<svg
   xmlns:dc="http://purl.org/dc/elements/1.1/"
   xmlns:cc="http://creativecommons.org/ns#"
   xmlns:rdf="http://www.w3.org/1999/02/22-rdf-syntax-ns#"
   xmlns:svg="http://www.w3.org/2000/svg"
   xmlns="http://www.w3.org/2000/svg"
   xmlns:sodipodi="http://sodipodi.sourceforge.net/DTD/sodipodi-0.dtd"
   xmlns:inkscape="http://www.inkscape.org/namespaces/inkscape"
   width="210mm"
   height="297mm"
   viewBox="0 0 744.09448819 1052.3622047"
   id="svg2"
   version="1.1"
   inkscape:version="0.91 r13725"
   sodipodi:docname="PourEdgeDetect.svg"
   inkscape:export-filename="/home/dong/Desktop/PourEdgeConvexHull.png"
   inkscape:export-xdpi="90"
   inkscape:export-ydpi="90">
  <defs
     id="defs4">
    <marker
       inkscape:stockid="EmptyDiamondL"
       orient="auto"
       refY="0.0"
       refX="0.0"
       id="EmptyDiamondL"
       style="overflow:visible"
       inkscape:isstock="true">
      <path
         id="path4254"
         d="M 0,-7.0710768 L -7.0710894,0 L 0,7.0710589 L 7.0710462,0 L 0,-7.0710768 z "
         style="fill-rule:evenodd;fill:#ffffff;stroke:#000000;stroke-width:1pt;stroke-opacity:1"
         transform="scale(0.8)" />
    </marker>
    <marker
       inkscape:stockid="DotM"
       orient="auto"
       refY="0.0"
       refX="0.0"
       id="marker8046"
       style="overflow:visible"
       inkscape:isstock="true">
      <path
         id="path8048"
         d="M -2.5,-1.0 C -2.5,1.7600000 -4.7400000,4.0 -7.5,4.0 C -10.260000,4.0 -12.5,1.7600000 -12.5,-1.0 C -12.5,-3.7600000 -10.260000,-6.0 -7.5,-6.0 C -4.7400000,-6.0 -2.5,-3.7600000 -2.5,-1.0 z "
         style="fill-rule:evenodd;stroke:#ff7927;stroke-width:1pt;stroke-opacity:1;fill:none;fill-opacity:1"
         transform="scale(0.4) translate(7.4, 1)" />
    </marker>
    <marker
       inkscape:stockid="DotM"
       orient="auto"
       refY="0.0"
       refX="0.0"
       id="marker7964"
       style="overflow:visible"
       inkscape:isstock="true">
      <path
         id="path7966"
         d="M -2.5,-1.0 C -2.5,1.7600000 -4.7400000,4.0 -7.5,4.0 C -10.260000,4.0 -12.5,1.7600000 -12.5,-1.0 C -12.5,-3.7600000 -10.260000,-6.0 -7.5,-6.0 C -4.7400000,-6.0 -2.5,-3.7600000 -2.5,-1.0 z "
         style="fill-rule:evenodd;stroke:#ff7927;stroke-width:1pt;stroke-opacity:1;fill:none;fill-opacity:1"
         transform="scale(0.4) translate(7.4, 1)" />
    </marker>
    <marker
       inkscape:stockid="EmptyDiamondLend"
       orient="auto"
       refY="0.0"
       refX="0.0"
       id="EmptyDiamondLend"
       style="overflow:visible"
       inkscape:isstock="true">
      <path
         id="path4272"
         d="M 0,-7.0710768 L -7.0710894,0 L 0,7.0710589 L 7.0710462,0 L 0,-7.0710768 z "
         style="fill-rule:evenodd;fill:#ffffff;stroke:#000000;stroke-width:1pt;stroke-opacity:1"
         transform="scale(0.8) translate(-7,0)" />
    </marker>
    <marker
       inkscape:isstock="true"
       style="overflow:visible"
       id="marker7617"
       refX="0.0"
       refY="0.0"
       orient="auto"
       inkscape:stockid="DotM">
      <path
         transform="scale(0.4) translate(7.4, 1)"
         style="fill-rule:evenodd;stroke:#000000;stroke-width:1pt;stroke-opacity:1;fill:none;fill-opacity:1"
         d="M -2.5,-1.0 C -2.5,1.7600000 -4.7400000,4.0 -7.5,4.0 C -10.260000,4.0 -12.5,1.7600000 -12.5,-1.0 C -12.5,-3.7600000 -10.260000,-6.0 -7.5,-6.0 C -4.7400000,-6.0 -2.5,-3.7600000 -2.5,-1.0 z "
         id="path7619" />
    </marker>
    <marker
       inkscape:stockid="DotM"
       orient="auto"
       refY="0.0"
       refX="0.0"
       id="marker7591"
       style="overflow:visible"
       inkscape:isstock="true">
      <path
         id="path7593"
         d="M -2.5,-1.0 C -2.5,1.7600000 -4.7400000,4.0 -7.5,4.0 C -10.260000,4.0 -12.5,1.7600000 -12.5,-1.0 C -12.5,-3.7600000 -10.260000,-6.0 -7.5,-6.0 C -4.7400000,-6.0 -2.5,-3.7600000 -2.5,-1.0 z "
         style="fill-rule:evenodd;stroke:#000000;stroke-width:1pt;stroke-opacity:1;fill:#000000;fill-opacity:1"
         transform="scale(0.4) translate(7.4, 1)" />
    </marker>
    <marker
       inkscape:stockid="DotM"
       orient="auto"
       refY="0.0"
       refX="0.0"
       id="marker7565"
       style="overflow:visible"
       inkscape:isstock="true">
      <path
         id="path7567"
         d="M -2.5,-1.0 C -2.5,1.7600000 -4.7400000,4.0 -7.5,4.0 C -10.260000,4.0 -12.5,1.7600000 -12.5,-1.0 C -12.5,-3.7600000 -10.260000,-6.0 -7.5,-6.0 C -4.7400000,-6.0 -2.5,-3.7600000 -2.5,-1.0 z "
         style="fill-rule:evenodd;stroke:#000000;stroke-width:1pt;stroke-opacity:1;fill:#000000;fill-opacity:1"
         transform="scale(0.4) translate(7.4, 1)" />
    </marker>
    <marker
       inkscape:isstock="true"
       style="overflow:visible"
       id="marker5185"
       refX="0.0"
       refY="0.0"
       orient="auto"
       inkscape:stockid="DotM"
       inkscape:collect="always">
      <path
         transform="scale(0.4) translate(7.4, 1)"
         style="fill-rule:evenodd;stroke:#000000;stroke-width:1pt;stroke-opacity:1;fill:none;fill-opacity:1"
         d="M -2.5,-1.0 C -2.5,1.7600000 -4.7400000,4.0 -7.5,4.0 C -10.260000,4.0 -12.5,1.7600000 -12.5,-1.0 C -12.5,-3.7600000 -10.260000,-6.0 -7.5,-6.0 C -4.7400000,-6.0 -2.5,-3.7600000 -2.5,-1.0 z "
         id="path5187" />
    </marker>
    <marker
       inkscape:stockid="Arrow2Send"
       orient="auto"
       refY="0.0"
       refX="0.0"
       id="Arrow2Send"
       style="overflow:visible;"
       inkscape:isstock="true">
      <path
         id="path4181"
         style="fill-rule:evenodd;stroke-width:0.625;stroke-linejoin:round;stroke:#000000;stroke-opacity:1;fill:#000000;fill-opacity:1"
         d="M 8.7185878,4.0337352 L -2.2072895,0.016013256 L 8.7185884,-4.0017078 C 6.9730900,-1.6296469 6.9831476,1.6157441 8.7185878,4.0337352 z "
         transform="scale(0.3) rotate(180) translate(-2.3,0)" />
    </marker>
    <marker
       inkscape:stockid="DiamondMstart"
       orient="auto"
       refY="0.0"
       refX="0.0"
       id="DiamondMstart"
       style="overflow:visible"
       inkscape:isstock="true">
      <path
         id="path4239"
         d="M 0,-7.0710768 L -7.0710894,0 L 0,7.0710589 L 7.0710462,0 L 0,-7.0710768 z "
         style="fill-rule:evenodd;stroke:#000000;stroke-width:1pt;stroke-opacity:1;fill:#000000;fill-opacity:1"
         transform="scale(0.4) translate(6.5,0)" />
    </marker>
    <marker
       inkscape:stockid="DotL"
       orient="auto"
       refY="0.0"
       refX="0.0"
       id="DotL"
       style="overflow:visible"
       inkscape:isstock="true">
      <path
         id="path4209"
         d="M -2.5,-1.0 C -2.5,1.7600000 -4.7400000,4.0 -7.5,4.0 C -10.260000,4.0 -12.5,1.7600000 -12.5,-1.0 C -12.5,-3.7600000 -10.260000,-6.0 -7.5,-6.0 C -4.7400000,-6.0 -2.5,-3.7600000 -2.5,-1.0 z "
         style="fill-rule:evenodd;stroke:#000000;stroke-width:1pt;stroke-opacity:1;fill:#000000;fill-opacity:1"
         transform="scale(0.8) translate(7.4, 1)" />
    </marker>
  </defs>
  <sodipodi:namedview
     id="base"
     pagecolor="#ffffff"
     bordercolor="#666666"
     borderopacity="1.0"
     inkscape:pageopacity="0.0"
     inkscape:pageshadow="2"
     inkscape:zoom="2.5675781"
     inkscape:cx="228.36454"
     inkscape:cy="618.39288"
     inkscape:document-units="px"
     inkscape:current-layer="layer1"
     showgrid="false"
     inkscape:window-width="1863"
     inkscape:window-height="1056"
     inkscape:window-x="57"
     inkscape:window-y="24"
     inkscape:window-maximized="1"
     inkscape:object-paths="true"
     inkscape:snap-intersection-paths="true"
     inkscape:object-nodes="true"
     inkscape:snap-smooth-nodes="true"
     inkscape:snap-midpoints="true" />
  <metadata
     id="metadata7">
    <rdf:RDF>
      <cc:Work
         rdf:about="">
        <dc:format>image/svg+xml</dc:format>
        <dc:type
           rdf:resource="http://purl.org/dc/dcmitype/StillImage" />
        <dc:title></dc:title>
      </cc:Work>
    </rdf:RDF>
  </metadata>
  <g
     inkscape:label="Layer 1"
     inkscape:groupmode="layer"
     id="layer1">
    <path
       style="fill:none;fill-rule:evenodd;stroke:#000000;stroke-width:1;stroke-linecap:butt;stroke-linejoin:miter;stroke-miterlimit:4;stroke-dasharray:none;stroke-dashoffset:0;stroke-opacity:1;marker-start:url(#marker5185);marker-mid:url(#marker7591);marker-end:url(#marker7617)"
       d="m 192.39921,366.1124 33.4946,13.24205 26.4841,-17.13677 36.61038,-10.90522 21.81043,16.35783 35.83144,9.34733 27.26304,0.77894 17.13677,16.35783 2.33684,15.57888 -5.45261,44.39982 -17.13677,0 -10.12628,18.69466 3.89472,18.69466 -3.89472,21.03149 -41.28404,13.24205 -36.61038,10.90522 -24.92621,14.02099 -19.4736,12.46311 c 0,0 -24.14727,-28.82093 -27.26305,-31.93671 -3.11578,-3.11578 -43.62087,-31.15777 -43.62087,-31.15777 l -28.04199,-5.45261"
       id="path4720"
       inkscape:connector-curvature="0"
       sodipodi:nodetypes="ccccccccccccccccccscc" />
  </g>
  <g
     inkscape:groupmode="layer"
     id="layer2"
     inkscape:label="Layer 2"
     style="display:none">
    <path
       style="fill:none;fill-rule:evenodd;stroke:#ff7927;stroke-width:1.79999995;stroke-linecap:butt;stroke-linejoin:miter;stroke-miterlimit:4;stroke-dasharray:1.8, 1.8;stroke-dashoffset:0;stroke-opacity:1;marker-start:url(#marker7964);marker-mid:url(#marker8046)"
       d="m 139.43101,494.63818 98.92591,68.54709 122.29423,-50.63137 27.26305,-58.42081 5.45261,-44.39982 -2.33684,-15.57888 -17.13677,-16.35783 -84.90491,-26.4841 -96.58908,14.79994 z"
       id="path7894"
       inkscape:connector-curvature="0" />
  </g>
</svg>
